<svg xmlns="http://www.w3.org/2000/svg" version="1.1" xmlns:xlink="http://www.w3.org/1999/xlink" xmlns:svgjs="http://svgjs.dev/svgjs" viewBox="0 0 2400 800" opacity="1">
	<defs>
		<linearGradient x1="50%" y1="0%" x2="50%" y2="100%" id="sssurf-grad">
			<stop stop-color="hsl(185, 53%, 55%)" stop-opacity="1" offset="0%" data-darkreader-inline-stopcolor="" style="--darkreader-inline-stopcolor: var(--darkreader-background-4fbfc9, #34878f);"></stop>
			<stop stop-color="hsl(0, 73%, 55%)" stop-opacity="1" offset="100%" data-darkreader-inline-stopcolor="" style="--darkreader-inline-stopcolor: var(--darkreader-background-e03838, #a02323);"></stop>
		</linearGradient>
	</defs>
	<g fill="url(#sssurf-grad)" transform="matrix(1,0,0,1,0,-124.83145141601562)">
		<path d="M 0 311.25054099288883 Q 145.82298374319288 450 400 319.5754219982543 Q 631.99932730523 450 800 346.454398931917 Q 996.9368324494452 450 1200 299.66286070928294 Q 1458.5651646924712 450 1600 350.326151012579 Q 1795.7513201903098 450 2000 343.987622884325 Q 2248.4026106742003 450 2400 319.8461154867704 L 2400 800 L 0 800 L 0 318.7064096136911 Z" transform="matrix(1,0,0,1,0,50)" opacity="0.05"></path>
		<path d="M 0 311.25054099288883 Q 145.82298374319288 450 400 319.5754219982543 Q 631.99932730523 450 800 346.454398931917 Q 996.9368324494452 450 1200 299.66286070928294 Q 1458.5651646924712 450 1600 350.326151012579 Q 1795.7513201903098 450 2000 343.987622884325 Q 2248.4026106742003 450 2400 319.8461154867704 L 2400 800 L 0 800 L 0 318.7064096136911 Z" transform="matrix(1,0,0,1,0,100)" opacity="0.24"></path>
		<path d="M 0 311.25054099288883 Q 145.82298374319288 450 400 319.5754219982543 Q 631.99932730523 450 800 346.454398931917 Q 996.9368324494452 450 1200 299.66286070928294 Q 1458.5651646924712 450 1600 350.326151012579 Q 1795.7513201903098 450 2000 343.987622884325 Q 2248.4026106742003 450 2400 319.8461154867704 L 2400 800 L 0 800 L 0 318.7064096136911 Z" transform="matrix(1,0,0,1,0,150)" opacity="0.43"></path>
		<path d="M 0 311.25054099288883 Q 145.82298374319288 450 400 319.5754219982543 Q 631.99932730523 450 800 346.454398931917 Q 996.9368324494452 450 1200 299.66286070928294 Q 1458.5651646924712 450 1600 350.326151012579 Q 1795.7513201903098 450 2000 343.987622884325 Q 2248.4026106742003 450 2400 319.8461154867704 L 2400 800 L 0 800 L 0 318.7064096136911 Z" transform="matrix(1,0,0,1,0,200)" opacity="0.62"></path>
		<path d="M 0 311.25054099288883 Q 145.82298374319288 450 400 319.5754219982543 Q 631.99932730523 450 800 346.454398931917 Q 996.9368324494452 450 1200 299.66286070928294 Q 1458.5651646924712 450 1600 350.326151012579 Q 1795.7513201903098 450 2000 343.987622884325 Q 2248.4026106742003 450 2400 319.8461154867704 L 2400 800 L 0 800 L 0 318.7064096136911 Z" transform="matrix(1,0,0,1,0,250)" opacity="0.81"></path>
		<path d="M 0 311.25054099288883 Q 145.82298374319288 450 400 319.5754219982543 Q 631.99932730523 450 800 346.454398931917 Q 996.9368324494452 450 1200 299.66286070928294 Q 1458.5651646924712 450 1600 350.326151012579 Q 1795.7513201903098 450 2000 343.987622884325 Q 2248.4026106742003 450 2400 319.8461154867704 L 2400 800 L 0 800 L 0 318.7064096136911 Z" transform="matrix(1,0,0,1,0,300)" opacity="1.00"></path>
	</g>
</svg>